<svg width="100" height="100" viewBox="0 0 100 100" fill="none" xmlns="http://www.w3.org/2000/svg">
<rect width="100" height="100" rx="6" fill="#1C4535"/>
<g clip-path="url(#clip0_12_167)">
<path d="M24 27H27.7166C29.0842 27 30.2774 27.8956 30.6314 29.1803L31.6584 32.9324M31.6584 32.9324C46.5962 32.5248 61.5196 34.1418 76 37.7369C73.7904 44.1446 71.1652 50.3694 68.1592 56.375H38.078M31.6584 32.9324L38.078 56.375M38.078 56.375C35.9444 56.375 33.8983 57.2003 32.3896 58.6693C30.881 60.1384 30.0334 62.1308 30.0334 64.2083H72.2673M34.0557 72.0417C34.0557 72.561 33.8438 73.0592 33.4666 73.4264C33.0895 73.7937 32.5779 74 32.0446 74C31.5112 74 30.9996 73.7937 30.6225 73.4264C30.2453 73.0592 30.0334 72.561 30.0334 72.0417C30.0334 71.5223 30.2453 71.0242 30.6225 70.6569C30.9996 70.2897 31.5112 70.0833 32.0446 70.0833C32.5779 70.0833 33.0895 70.2897 33.4666 70.6569C33.8438 71.0242 34.0557 71.5223 34.0557 72.0417ZM68.245 72.0417C68.245 72.561 68.0332 73.0592 67.656 73.4264C67.2788 73.7937 66.7673 74 66.2339 74C65.7005 74 65.189 73.7937 64.8118 73.4264C64.4347 73.0592 64.2228 72.561 64.2228 72.0417C64.2228 71.5223 64.4347 71.0242 64.8118 70.6569C65.189 70.2897 65.7005 70.0833 66.2339 70.0833C66.7673 70.0833 67.2788 70.2897 67.656 70.6569C68.0332 71.0242 68.245 71.5223 68.245 72.0417Z" stroke="#D1B06B" stroke-width="4" stroke-linecap="round" stroke-linejoin="round"/>
</g>
<defs>
<clipPath id="clip0_12_167">
<rect width="64" height="64" fill="white" transform="translate(18 18)"/>
</clipPath>
</defs>
</svg>
