<svg width="20" height="21" viewBox="0 0 20 21" fill="none" xmlns="http://www.w3.org/2000/svg">
<path d="M1 20L2.19496 15.3778C1.45758 14.0247 1.07012 12.491 1.07083 10.9183C1.07296 6.00125 4.85191 2 9.49502 2C11.7482 2.00075 13.8633 2.93 15.4542 4.616C17.0444 6.302 17.9199 8.543 17.9192 10.9265C17.9171 15.8443 14.1381 19.8455 9.49502 19.8455C8.08544 19.8448 6.6964 19.4705 5.46603 18.7595L1 20ZM5.67286 17.1448C6.86003 17.891 7.99336 18.338 9.49219 18.3387C13.3512 18.3387 16.4948 15.0133 16.4969 10.925C16.4983 6.8285 13.3696 3.5075 9.49786 3.506C5.63603 3.506 2.49458 6.8315 2.49316 10.919C2.49246 12.5878 2.95429 13.8372 3.72991 15.1445L3.02229 17.8805L5.67286 17.1448ZM13.7386 13.0468C13.6862 12.9537 13.546 12.8982 13.3349 12.7865C13.1245 12.6748 12.0896 12.1355 11.8963 12.0612C11.7036 11.987 11.5634 11.9495 11.4224 12.173C11.2821 12.3958 10.8784 12.8982 10.7559 13.0468C10.6333 13.1953 10.5101 13.214 10.2997 13.1023C10.0893 12.9905 9.41073 12.7557 8.60677 11.996C7.98132 11.405 7.55844 10.6753 7.4359 10.4517C7.31336 10.229 7.42315 10.1082 7.52799 9.99725C7.6229 9.8975 7.73836 9.737 7.8439 9.6065C7.95086 9.4775 7.98557 9.3845 8.0564 9.23525C8.12653 9.08675 8.09182 8.95625 8.03869 8.8445C7.98557 8.7335 7.56482 7.63625 7.38986 7.19C7.21844 6.75575 7.0449 6.81425 6.91599 6.8075L6.51224 6.8C6.37199 6.8 6.14391 6.8555 5.95124 7.079C5.75857 7.3025 5.21457 7.841 5.21457 8.93825C5.21457 10.0355 5.96895 11.0953 6.07378 11.2437C6.17932 11.3923 7.55773 13.6438 9.66927 14.609C10.1715 14.8385 10.5639 14.9757 10.8692 15.0785C11.3735 15.248 11.8325 15.224 12.1952 15.167C12.5996 15.1032 13.4404 14.6277 13.6161 14.1073C13.7918 13.586 13.7918 13.1398 13.7386 13.0468Z" fill="#1C4535"/>
</svg>
