<svg width="80" height="70" viewBox="0 0 108 71" fill="none" xmlns="http://www.w3.org/2000/svg">
<g clip-path="url(#clip0_18_161)">
<path d="M4.1297 19.0413C4.14483 17.7859 4.11255 16.7558 4.02879 15.9527L4.94672 15.9638C5.24329 16.6361 5.82236 17.294 6.686 17.9339C7.54562 18.5703 8.7659 19.1114 10.3468 19.5573L36.3783 26.9206C36.3463 27.2154 36.3285 27.6811 36.3208 28.3213C36.3131 28.9614 36.3196 29.4292 36.3445 29.723L15.876 35.3666L36.2022 41.5372C36.1702 41.832 36.1524 42.2978 36.1447 42.9379C36.1369 43.5834 36.1435 44.0512 36.1685 44.3396L7.42577 52.971C6.41465 53.2771 5.6789 53.6542 5.21852 54.1039C4.75813 54.5537 4.50895 55.0059 4.47097 55.4608L3.55304 55.4497C3.66576 53.8487 3.7344 51.8594 3.76302 49.4838C3.79003 47.2415 3.76514 45.5979 3.68429 44.553L4.60222 44.5641C4.74327 45.5012 5.33066 45.9743 6.36434 45.9867C6.85783 45.9926 7.54774 45.88 8.43203 45.6488L27.8521 40.0352L14.27 35.8239L7.15369 37.7869C6.2691 38.043 5.64796 38.3486 5.29028 38.7035C4.9346 39.0602 4.72443 39.4774 4.65774 39.955L3.73981 39.944C3.85122 38.4514 3.91888 36.544 3.94687 34.2199C3.9784 31.6024 3.95688 29.6797 3.87826 28.4498L4.79619 28.4609C4.81708 29.425 4.9387 30.1201 5.16101 30.5496C5.38332 30.9791 5.81534 31.1977 6.45302 31.2054C7.0054 31.212 7.7259 31.0891 8.61049 30.833L27.7988 25.5723L14.027 21.6006C11.7497 20.9614 9.9845 20.6342 8.73352 20.6191C7.42364 20.6034 6.46771 20.8799 5.86376 21.4453C5.26181 22.0125 4.92448 22.8692 4.84974 24.0154L3.93181 24.0044C4.04709 22.19 4.11171 20.535 4.1297 19.0413Z" fill="#B87224"/>
<path d="M57.0234 19.699C58.9729 19.7225 60.5724 19.9818 61.8237 20.4753C63.073 20.9705 64.4374 21.6877 65.9168 22.6303C66.3398 22.9252 66.6691 23.0733 66.9027 23.0761C67.5302 23.0836 67.9551 22.2066 68.1774 20.4451L69.3146 20.4588C69.162 22.3403 69.0569 25.6683 68.9994 30.4427L67.854 30.4289C67.5739 28.8943 67.2744 27.6245 66.9575 26.6194C66.6385 25.6161 66.1372 24.735 65.4538 23.9763C64.5078 22.9227 63.2688 22.0826 61.7388 21.456C60.2068 20.8257 58.6 20.5005 56.9165 20.4802C54.7333 20.4539 52.8067 21.0549 51.1345 22.2815C49.4665 23.5045 48.1738 25.262 47.2525 27.5558C46.3312 29.846 45.8521 32.5257 45.8151 35.5984C45.7523 40.8102 46.6568 44.6359 48.5285 47.0771C50.4043 49.5148 53.3771 50.7564 57.4449 50.8054C59.427 50.8293 61.1504 50.4019 62.6193 49.5232C63.2124 49.1854 63.6044 48.8504 63.7932 48.5201C63.9801 48.1862 64.079 47.7304 64.086 47.1507L64.1362 42.9826C64.1508 41.7699 64.0274 40.8863 63.77 40.3319C63.5106 39.7792 63.0521 39.3967 62.3945 39.1842C61.7349 38.9735 60.6622 38.829 59.1743 38.7542L59.1848 37.8864C60.8998 37.9925 63.2306 38.0632 66.1774 38.0987C68.4234 38.1258 70.1441 38.1038 71.3372 38.0328L71.3267 38.9006C70.5625 38.9483 70.0046 39.0589 69.6573 39.229C69.3079 39.3956 69.0744 39.7253 68.9548 40.2165C68.8351 40.7095 68.7687 41.5054 68.7554 42.6043L68.6518 51.2036L67.6527 51.1916C67.6271 50.6133 67.4998 50.0551 67.2748 49.5153C67.0538 48.9773 66.7442 48.705 66.3503 48.7003C66.1492 48.6979 65.9476 48.7417 65.7475 48.8282C65.5515 48.9112 65.2018 49.1097 64.7005 49.4202C63.5314 50.1887 62.3241 50.761 61.0807 51.1337C59.8352 51.5064 58.4519 51.6854 56.9308 51.6671C53.5292 51.6261 50.6203 50.9775 48.2042 49.7195C45.7861 48.4579 43.9472 46.6627 42.6876 44.332C41.4259 42.003 40.8154 39.2302 40.8541 36.0152C40.8939 32.7149 41.6132 29.8212 43.0142 27.334C44.4193 24.8433 46.3352 22.9386 48.762 21.6198C51.1929 20.3028 53.9467 19.6619 57.0234 19.699Z" fill="#B87224"/>
<path d="M38.2955 60.168L38.0508 11.6802" stroke="#B87224" stroke-width="4.00574"/>
<path d="M15.3478 39.603C15.0188 39.599 14.7699 39.5177 14.6032 39.3592C14.4325 39.2006 14.3479 38.9755 14.3514 38.6803C14.3549 38.3922 14.4449 38.1692 14.6194 38.0148C14.796 37.8604 15.0447 37.7852 15.3697 37.7891C15.6784 37.7928 15.9252 37.8776 16.106 38.0398C16.2829 38.1985 16.3696 38.4201 16.3661 38.7046C16.3626 38.9945 16.2726 39.2193 16.098 39.3772C15.9174 39.5316 15.6687 39.6068 15.3478 39.603Z" fill="#B87224"/>
<path d="M15.5144 25.769C15.1854 25.765 14.9366 25.6838 14.7699 25.5252C14.5991 25.3667 14.5145 25.1415 14.518 24.8463C14.5215 24.5583 14.6115 24.3352 14.7861 24.1808C14.9626 24.0265 15.2113 23.9512 15.5363 23.9551C15.845 23.9588 16.0918 24.0436 16.2726 24.2059C16.4495 24.3645 16.5362 24.5861 16.5328 24.8706C16.5293 25.1605 16.4392 25.3853 16.2647 25.5432C16.084 25.6976 15.8353 25.7728 15.5144 25.769Z" fill="#B87224"/>
<path d="M54.9707 35.7275C54.6417 35.7235 54.3929 35.6422 54.2262 35.4837C54.0554 35.3252 53.9708 35.1 53.9743 34.8048C53.9778 34.5168 54.0678 34.2937 54.2424 34.1393C54.4189 33.9849 54.6676 33.9097 54.9926 33.9136C55.3013 33.9173 55.5481 34.0021 55.7289 34.1644C55.9058 34.323 55.9925 34.5446 55.9891 34.8291C55.9856 35.119 55.8955 35.3438 55.721 35.5017C55.5403 35.6561 55.2916 35.7313 54.9707 35.7275Z" fill="#B87224"/>
</g>
<defs>
<clipPath id="clip0_18_161">
<rect width="108" height="71" fill="white"/>
</clipPath>
</defs>
</svg>
