<svg width="100" height="100" viewBox="0 0 100 100" fill="none" xmlns="http://www.w3.org/2000/svg">
<rect width="100" height="100" rx="6" fill="#1C4535"/>
<path d="M75.1472 66.1541C77.0035 66.1541 78.3571 64.2587 77.9162 62.2997C76.3251 55.2416 70.4564 50.0002 63.4616 50.0002C56.4667 50.0002 50.5946 55.2415 49.0069 62.3035C48.5661 64.2624 49.9196 66.1541 51.7759 66.1541H75.1472Z" stroke="#D1B06B" stroke-width="3" stroke-miterlimit="10"/>
<path d="M48.2241 66.1541C50.0805 66.1541 51.434 64.2587 50.9931 62.2997C49.402 55.2416 43.5333 50.0002 36.5385 50.0002C29.5436 50.0002 23.6715 55.2415 22.0838 62.3035C21.643 64.2624 22.9965 66.1541 24.8528 66.1541H48.2241Z" stroke="#D1B06B" stroke-width="3" stroke-miterlimit="10"/>
<path d="M58.6561 70.4616C60.0312 70.4616 61.0338 69.0717 60.7072 67.6351C59.5286 62.4591 55.1814 58.6155 50.0001 58.6155C44.8187 58.6155 40.469 62.4591 39.2929 67.6379C38.9664 69.0744 39.969 70.4616 41.344 70.4616H58.6561Z" fill="#1C4535" stroke="#D1B06B" stroke-width="3" stroke-miterlimit="10"/>
<path d="M70.0384 38.154C70.0384 42.0837 66.8527 45.2693 62.923 45.2693C58.9933 45.2693 55.8076 42.0837 55.8076 38.154C55.8076 34.2242 58.9933 31.0386 62.923 31.0386C66.8527 31.0386 70.0384 34.2242 70.0384 38.154Z" stroke="#D1B06B" stroke-width="3" stroke-miterlimit="10"/>
<path d="M44.1923 38.154C44.1923 42.0837 41.0066 45.2693 37.0769 45.2693C33.1472 45.2693 29.9615 42.0837 29.9615 38.154C29.9615 34.2242 33.1472 31.0386 37.0769 31.0386C41.0066 31.0386 44.1923 34.2242 44.1923 38.154Z" stroke="#D1B06B" stroke-width="3" stroke-miterlimit="10"/>
<path d="M54.9615 50.0001C54.9615 52.7403 52.7402 54.9617 50 54.9617C47.2598 54.9617 45.0385 52.7403 45.0385 50.0001C45.0385 47.2599 47.2598 45.0386 50 45.0386C52.7402 45.0386 54.9615 47.2599 54.9615 50.0001Z" stroke="#D1B06B" stroke-width="3" stroke-miterlimit="10"/>
</svg>
