<svg width="100" height="100" viewBox="0 0 100 100" fill="none" xmlns="http://www.w3.org/2000/svg">
<rect width="100" height="100" rx="6" fill="#1C4535"/>
<g clip-path="url(#clip0_12_159)">
<path d="M48.2667 28.3107C48.0933 28.8814 48 29.4875 48 30.1154C48 31.2406 48.896 32.1538 50 32.1538H62C62.5304 32.1538 63.0391 31.9391 63.4142 31.5568C63.7893 31.1745 64 30.656 64 30.1154C64.0002 29.5036 63.9103 28.8953 63.7333 28.3107M48.2667 28.3107C48.6454 27.0623 49.4063 25.9703 50.438 25.1946C51.4697 24.419 52.718 24.0003 54 24H58C60.6987 24 62.9787 25.8156 63.7333 28.3107M48.2667 28.3107C47.264 28.3732 46.2667 28.4466 45.2693 28.5281C42.2533 28.7836 40 31.401 40 34.4858V40.3077M63.7333 28.3107C64.736 28.3732 65.7333 28.4466 66.7307 28.5281C69.7467 28.7836 72 31.401 72 34.4858V62.7308C72 64.3527 71.3679 65.9081 70.2426 67.055C69.1174 68.2019 67.5913 68.8462 66 68.8462H60M40 40.3077H31C29.344 40.3077 28 41.6775 28 43.3654V73.9423C28 75.6302 29.344 77 31 77H57C58.656 77 60 75.6302 60 73.9423V68.8462M40 40.3077H57C58.656 40.3077 60 41.6775 60 43.3654V68.8462M38 60.6923L42 64.7692L50 54.5769" stroke="#D1B06B" stroke-width="4" stroke-linecap="round" stroke-linejoin="round"/>
</g>
<defs>
<clipPath id="clip0_12_159">
<rect width="64" height="64" fill="white" transform="translate(18 18)"/>
</clipPath>
</defs>
</svg>
