<svg width="100" height="100" viewBox="0 0 100 100" fill="none" xmlns="http://www.w3.org/2000/svg">
<rect width="100" height="100" rx="6" fill="#1C4535"/>
<g clip-path="url(#clip0_12_190)">
<path d="M49.5 27V71.0833M49.5 71.0833C45.8011 71.0833 42.2581 71.7606 38.9838 73M49.5 71.0833C53.1989 71.0833 56.7419 71.7606 60.0162 73M66.4615 32.0344C60.8422 31.2323 55.1745 30.8309 49.5 30.8333C43.7431 30.8333 38.0792 31.2422 32.5385 32.0344M66.4615 32.0344C68.9995 32.3999 71.5123 32.8446 74 33.3633M66.4615 32.0344L73.0451 59.4453C73.3517 60.7206 72.7788 62.0724 71.5651 62.5171C69.9278 63.1147 68.2011 63.4191 66.4615 63.4167C64.722 63.4191 62.9953 63.1147 61.358 62.5171C60.1443 62.0724 59.5714 60.7206 59.8754 59.4453L66.4615 32.037V32.0344ZM32.5385 32.0344C30.0005 32.3999 27.4877 32.8446 25 33.3633M32.5385 32.0344L39.1221 59.4453C39.4286 60.7206 38.8557 62.0724 37.642 62.5171C36.0047 63.1147 34.278 63.419 32.5385 63.4167C30.7989 63.419 29.0722 63.1147 27.4349 62.5171C26.2212 62.0724 25.6483 60.7206 25.9524 59.4453L32.5385 32.037V32.0344Z" stroke="#D1B06B" stroke-width="4" stroke-linecap="round" stroke-linejoin="round"/>
</g>
<defs>
<clipPath id="clip0_12_190">
<rect width="64" height="64" fill="white" transform="translate(18 18)"/>
</clipPath>
</defs>
</svg>
